<svg xmlns="http://www.w3.org/2000/svg" viewBox="0 0 32 32"><title>interface-essential-bin</title><g><polygon points="25.905 8.38 25.905 25.14 27.435 25.14 27.435 8.38 30.475 8.38 30.475 6.86 28.955 6.86 28.955 5.33 22.855 5.33 22.855 2.28 21.335 2.28 21.335 5.33 10.665 5.33 10.665 2.28 9.145 2.28 9.145 5.33 3.055 5.33 3.055 6.86 1.525 6.86 1.525 8.38 4.575 8.38 4.575 25.14 6.095 25.14 6.095 8.38 25.905 8.38" fill="currentColor"></polygon><rect x="24.385" y="25.14" width="1.52" height="4.57" fill="currentColor"></rect><rect x="7.625" y="29.71" width="16.76" height="1.53" fill="currentColor"></rect><rect x="21.335" y="11.43" width="1.52" height="12.19" fill="currentColor"></rect><rect x="19.815" y="23.62" width="1.52" height="3.04" fill="currentColor"></rect><rect x="15.245" y="11.43" width="1.52" height="15.23" fill="currentColor"></rect><rect x="10.665" y="0.76" width="10.67" height="1.52" fill="currentColor"></rect><rect x="10.665" y="23.62" width="1.53" height="3.04" fill="currentColor"></rect><rect x="9.145" y="11.43" width="1.52" height="12.19" fill="currentColor"></rect><rect x="6.095" y="25.14" width="1.53" height="4.57" fill="currentColor"></rect></g></svg>