<svg xmlns="http://www.w3.org/2000/svg" viewBox="0 0 32 32"><title>food-drink-coffee</title><g><rect x="29.71" y="15.24" width="1.53" height="4.57" fill="#000000"></rect><rect x="28.19" y="19.81" width="1.52" height="1.52" fill="#000000"></rect><rect x="28.19" y="13.72" width="1.52" height="1.52" fill="#000000"></rect><rect x="26.67" y="25.91" width="1.52" height="1.52" fill="#000000"></rect><rect x="26.67" y="16.76" width="1.52" height="1.53" fill="#000000"></rect><rect x="23.62" y="12.19" width="4.57" height="1.53" fill="#000000"></rect><rect x="25.14" y="27.43" width="1.53" height="1.52" fill="#000000"></rect><rect x="25.14" y="24.38" width="1.53" height="1.53" fill="#000000"></rect><polygon points="23.62 21.33 23.62 22.86 22.09 22.86 22.09 24.38 25.14 24.38 25.14 22.86 28.19 22.86 28.19 21.33 23.62 21.33" fill="#000000"></polygon><polygon points="23.62 15.24 23.62 19.81 26.67 19.81 26.67 18.29 25.14 18.29 25.14 16.76 26.67 16.76 26.67 15.24 23.62 15.24" fill="#000000"></polygon><rect x="22.09" y="28.95" width="3.05" height="1.53" fill="#000000"></rect><rect x="22.09" y="10.67" width="1.53" height="1.52" fill="#000000"></rect><rect x="19.05" y="24.38" width="3.04" height="1.53" fill="#000000"></rect><rect x="17.52" y="9.14" width="4.57" height="1.53" fill="#000000"></rect><rect x="6.86" y="30.48" width="15.23" height="1.52" fill="#000000"></rect><polygon points="8.38 12.19 8.38 13.72 6.86 13.72 6.86 15.24 8.38 15.24 8.38 16.76 20.57 16.76 20.57 15.24 22.09 15.24 22.09 13.72 20.57 13.72 20.57 12.19 8.38 12.19" fill="#000000"></polygon><rect x="19.05" y="1.52" width="1.52" height="3.05" fill="#000000"></rect><rect x="16" width="3.05" height="1.52" fill="#000000"></rect><rect x="17.52" y="4.57" width="1.53" height="1.53" fill="#000000"></rect><rect x="14.47" y="1.52" width="1.53" height="1.53" fill="#000000"></rect><rect x="14.47" y="7.62" width="1.53" height="3.05" fill="#000000"></rect><rect x="11.43" width="3.04" height="1.52" fill="#000000"></rect><rect x="12.95" y="6.1" width="1.52" height="1.52" fill="#000000"></rect><rect x="11.43" y="4.57" width="1.52" height="1.53" fill="#000000"></rect><rect x="9.9" y="25.91" width="9.15" height="1.52" fill="#000000"></rect><rect x="9.9" y="1.52" width="1.53" height="3.05" fill="#000000"></rect><rect x="6.86" y="9.14" width="6.09" height="1.53" fill="#000000"></rect><rect x="6.86" y="24.38" width="3.04" height="1.53" fill="#000000"></rect><rect x="3.81" y="28.95" width="3.05" height="1.53" fill="#000000"></rect><polygon points="6.86 21.33 5.33 21.33 5.33 22.86 3.81 22.86 3.81 24.38 6.86 24.38 6.86 21.33" fill="#000000"></polygon><rect x="5.33" y="10.67" width="1.53" height="1.52" fill="#000000"></rect><rect x="3.81" y="12.19" width="1.52" height="9.14" fill="#000000"></rect><rect x="2.28" y="27.43" width="1.53" height="1.52" fill="#000000"></rect><rect x="2.28" y="24.38" width="1.53" height="1.53" fill="#000000"></rect><rect x="0.76" y="25.91" width="1.52" height="1.52" fill="#000000"></rect></g></svg>