<svg xmlns="http://www.w3.org/2000/svg" viewBox="0 0 32 32"><title>interface-essential-eraser</title><g><rect x="30.47" y="29.72" width="1.53" height="1.52" fill="currentColor"></rect><rect x="27.42" y="26.67" width="1.53" height="1.52" fill="currentColor"></rect><rect x="27.42" y="11.43" width="1.53" height="3.05" fill="currentColor"></rect><rect x="25.9" y="14.48" width="1.52" height="1.52" fill="currentColor"></rect><rect x="25.9" y="9.91" width="1.52" height="1.52" fill="currentColor"></rect><rect x="24.38" y="29.72" width="1.52" height="1.52" fill="currentColor"></rect><rect x="24.38" y="16" width="1.52" height="1.53" fill="currentColor"></rect><rect x="24.38" y="8.38" width="1.52" height="1.53" fill="currentColor"></rect><rect x="22.85" y="26.67" width="1.53" height="1.52" fill="currentColor"></rect><rect x="22.85" y="17.53" width="1.53" height="1.52" fill="currentColor"></rect><rect x="22.85" y="6.86" width="1.53" height="1.52" fill="currentColor"></rect><rect x="21.33" y="19.05" width="1.52" height="1.52" fill="currentColor"></rect><rect x="21.33" y="5.33" width="1.52" height="1.53" fill="currentColor"></rect><rect x="19.8" y="28.19" width="1.53" height="1.53" fill="currentColor"></rect><rect x="19.8" y="20.57" width="1.53" height="1.53" fill="currentColor"></rect><rect x="19.8" y="3.81" width="1.53" height="1.52" fill="currentColor"></rect><rect x="18.28" y="22.1" width="1.52" height="1.52" fill="currentColor"></rect><rect x="18.28" y="11.43" width="1.52" height="1.52" fill="currentColor"></rect><rect x="18.28" y="2.29" width="1.52" height="1.52" fill="currentColor"></rect><rect x="16.76" y="23.62" width="1.52" height="1.52" fill="currentColor"></rect><rect x="15.23" y="0.76" width="3.05" height="1.53" fill="currentColor"></rect><rect x="15.23" y="25.14" width="1.53" height="1.53" fill="currentColor"></rect><rect x="15.23" y="14.48" width="3.05" height="1.52" fill="currentColor"></rect><rect x="15.23" y="8.38" width="1.53" height="1.53" fill="currentColor"></rect><rect x="13.71" y="23.62" width="1.52" height="1.52" fill="currentColor"></rect><rect x="13.71" y="12.95" width="1.52" height="1.53" fill="currentColor"></rect><rect x="13.71" y="2.29" width="1.52" height="1.52" fill="currentColor"></rect><rect x="12.19" y="25.14" width="1.52" height="1.53" fill="currentColor"></rect><rect x="12.19" y="22.1" width="1.52" height="1.52" fill="currentColor"></rect><rect x="12.19" y="9.91" width="1.52" height="3.04" fill="currentColor"></rect><rect x="12.19" y="3.81" width="1.52" height="1.52" fill="currentColor"></rect><rect x="10.66" y="20.57" width="1.53" height="1.53" fill="currentColor"></rect><rect x="10.66" y="5.33" width="1.53" height="1.53" fill="currentColor"></rect><polygon points="6.09 29.72 7.61 29.72 7.61 31.24 18.28 31.24 18.28 29.72 15.23 29.72 15.23 28.19 12.19 28.19 12.19 26.67 6.09 26.67 6.09 28.19 1.52 28.19 1.52 29.72 0 29.72 0 31.24 6.09 31.24 6.09 29.72" fill="currentColor"></polygon><rect x="9.14" y="19.05" width="1.52" height="1.52" fill="currentColor"></rect><rect x="9.14" y="6.86" width="1.52" height="1.52" fill="currentColor"></rect><rect x="7.61" y="17.53" width="1.53" height="1.52" fill="currentColor"></rect><rect x="7.61" y="8.38" width="1.53" height="1.53" fill="currentColor"></rect><rect x="6.09" y="16" width="1.52" height="1.53" fill="currentColor"></rect><rect x="6.09" y="9.91" width="1.52" height="1.52" fill="currentColor"></rect><rect x="4.57" y="25.14" width="1.52" height="1.53" fill="currentColor"></rect><rect x="4.57" y="14.48" width="1.52" height="1.52" fill="currentColor"></rect><rect x="4.57" y="11.43" width="1.52" height="1.52" fill="currentColor"></rect><rect x="3.04" y="23.62" width="1.53" height="1.52" fill="currentColor"></rect><rect x="3.04" y="16" width="1.53" height="1.53" fill="currentColor"></rect><rect x="3.04" y="12.95" width="1.53" height="1.53" fill="currentColor"></rect><rect x="1.52" y="22.1" width="1.52" height="1.52" fill="currentColor"></rect><rect x="1.52" y="17.53" width="1.52" height="1.52" fill="currentColor"></rect><rect y="19.05" width="1.52" height="3.05" fill="currentColor"></rect></g></svg>