<svg xmlns="http://www.w3.org/2000/svg" fill="none" viewBox="0 0 24 24"><path fill="currentColor" d="M24 2.28751H22.8525V22.86H24V2.28751Z"></path><path fill="currentColor" d="M22.8525 1.14001H21.7125V2.28751H22.8525V1.14001Z"></path><path fill="currentColor" d="M20.5725 12.57H19.425V22.86H4.5675V12.57H3.4275V22.86H1.14V24H22.8525V22.86H20.5725V12.57Z"></path><path fill="currentColor" d="M13.71 6.85501H18.285V2.28751H13.71V6.85501ZM14.8575 3.42751H15.9975V5.71501H14.8575V3.42751Z"></path><path fill="currentColor" d="M17.1375 19.425H6.855V20.5725H17.1375V19.425Z"></path><path fill="currentColor" d="M17.1375 15.9975H6.855V17.145H17.1375V15.9975Z"></path><path fill="currentColor" d="M19.425 11.43H4.5675V12.57H19.425V11.43Z"></path><path fill="currentColor" d="M3.4275 6.855H4.5675V1.14H6.855V6.855H4.5675V8.0025H6.855V9.1425H20.5725V1.14H21.7125V0H2.2875V1.14H3.4275V6.855ZM7.995 1.14H19.425V8.0025H7.995V1.14Z"></path><path fill="currentColor" d="M2.2875 1.14001H1.14V2.28751H2.2875V1.14001Z"></path><path fill="currentColor" d="M1.14 2.28751H0V22.86H1.14V2.28751Z"></path></svg>