<svg xmlns="http://www.w3.org/2000/svg" fill="none" viewBox="0 0 24 24"><path fill="#000000" d="M23.4263 6.285H22.2863V7.425H23.4263V6.285Z"></path><path fill="#000000" d="M22.2863 7.42502H19.9988V8.57252H22.2863V7.42502Z"></path><path fill="#000000" d="M22.2863 5.14502H19.9988V6.28502H22.2863V5.14502Z"></path><path fill="#000000" d="M17.7112 17.715V18.855H15.4313V20.0025H13.1437V21.1425H10.8562V20.0025H8.56875V18.855H6.28875V17.715H4.00125V16.5675H0.57375V17.715H1.71375V18.855H4.00125V20.0025H6.28875V21.1425H8.56875V22.2825H10.8562V23.43H13.1437V22.2825H15.4313V21.1425H17.7112V20.0025H19.9988V18.855H22.2863V17.715H23.4263V16.5675H19.9988V17.715H17.7112Z"></path><path fill="#000000" d="M17.7112 14.2875V15.4275H15.4313V16.5675H13.1437V17.715H10.8562V16.5675H8.56875V15.4275H6.28875V14.2875H4.00125V13.14H0.57375V14.2875H1.71375V15.4275H4.00125V16.5675H6.28875V17.715H8.56875V18.855H10.8562V20.0025H13.1437V18.855H15.4313V17.715H17.7112V16.5675H19.9988V15.4275H22.2863V14.2875H23.4263V13.14H19.9988V14.2875H17.7112Z"></path><path fill="#000000" d="M17.7112 10.86V12H15.4313V13.14H13.1437V14.2875H10.8562V13.14H8.56875V12H6.28875V10.86H4.00125V9.71249H0.57375V10.86H1.71375V12H4.00125V13.14H6.28875V14.2875H8.56875V15.4275H10.8562V16.5675H13.1437V15.4275H15.4313V14.2875H17.7112V13.14H19.9988V12H22.2863V10.86H23.4263V9.71249H19.9988V10.86H17.7112Z"></path><path fill="#000000" d="M19.9988 8.57251H17.7113V9.71251H19.9988V8.57251Z"></path><path fill="#000000" d="M19.9988 3.9975H17.7113V5.145H19.9988V3.9975Z"></path><path fill="#000000" d="M17.7113 9.71249H15.4313V10.86H17.7113V9.71249Z"></path><path fill="#000000" d="M17.7113 2.85751H15.4313V3.99751H17.7113V2.85751Z"></path><path fill="#000000" d="M15.4313 10.86H13.1437V12H15.4313V10.86Z"></path><path fill="#000000" d="M15.4313 1.7175H13.1437V2.8575H15.4313V1.7175Z"></path><path fill="#000000" d="M13.1438 12H10.8563V13.14H13.1438V12Z"></path><path fill="#000000" d="M13.1438 0.570007H10.8563V1.71751H13.1438V0.570007Z"></path><path fill="#000000" d="M10.8562 10.86H8.56875V12H10.8562V10.86Z"></path><path fill="#000000" d="M10.8562 1.7175H8.56875V2.8575H10.8562V1.7175Z"></path><path fill="#000000" d="M8.56875 9.71249H6.28875V10.86H8.56875V9.71249Z"></path><path fill="#000000" d="M8.56875 2.85751H6.28875V3.99751H8.56875V2.85751Z"></path><path fill="#000000" d="M6.28875 8.57251H4.00125V9.71251H6.28875V8.57251Z"></path><path fill="#000000" d="M6.28875 3.9975H4.00125V5.145H6.28875V3.9975Z"></path><path fill="#000000" d="M4.00125 7.42502H1.71375V8.57252H4.00125V7.42502Z"></path><path fill="#000000" d="M4.00125 5.14502H1.71375V6.28502H4.00125V5.14502Z"></path><path fill="#000000" d="M1.71375 6.285H0.57375V7.425H1.71375V6.285Z"></path></svg>