<svg xmlns="http://www.w3.org/2000/svg" viewBox="0 0 32 32"><title>design-pencil</title><g><rect x="21.335" y="9.14" width="1.52" height="9.15" fill="currentColor"></rect><path d="M12.2,3.05V1.52h-1.53V3.05H9.145V24.38h1.52V12.19h7.62V24.38h1.52V9.14h1.53V7.62h-1.53V3.05h-1.52V1.52h-1.52V3.05Zm6.09,1.52V6.1h-7.62V4.57Z" fill="currentColor"></path><polygon points="10.665 24.38 10.665 27.43 12.195 27.43 12.195 25.91 16.765 25.91 16.765 27.43 18.285 27.43 18.285 24.38 10.665 24.38" fill="currentColor"></polygon><rect x="15.235" y="27.43" width="1.53" height="1.52" fill="currentColor"></rect><rect x="12.195" width="4.57" height="1.52" fill="currentColor"></rect><rect x="13.715" y="28.95" width="1.52" height="3.05" fill="currentColor"></rect><rect x="12.195" y="27.43" width="1.52" height="1.52" fill="currentColor"></rect></g></svg>