<svg xmlns="http://www.w3.org/2000/svg" viewBox="0 0 32 32"><title>interface-essential-setting-cog</title><g><polygon points="29.715 14.48 29.715 17.53 28.195 17.53 28.195 19.05 31.235 19.05 31.235 12.95 28.195 12.95 28.195 14.48 29.715 14.48" fill="#000000"></polygon><rect x="26.665" y="23.62" width="1.53" height="1.52" fill="#000000"></rect><rect x="26.665" y="19.05" width="1.53" height="3.05" fill="#000000"></rect><rect x="26.665" y="9.91" width="1.53" height="3.04" fill="#000000"></rect><rect x="26.665" y="6.86" width="1.53" height="1.52" fill="#000000"></rect><rect x="25.145" y="25.14" width="1.52" height="1.53" fill="#000000"></rect><rect x="25.145" y="22.1" width="1.52" height="1.52" fill="#000000"></rect><rect x="25.145" y="8.38" width="1.52" height="1.53" fill="#000000"></rect><rect x="25.145" y="5.34" width="1.52" height="1.52" fill="#000000"></rect><rect x="23.615" y="26.67" width="1.53" height="1.52" fill="#000000"></rect><rect x="23.615" y="12.95" width="1.53" height="6.1" fill="#000000"></rect><rect x="23.615" y="3.81" width="1.53" height="1.53" fill="#000000"></rect><rect x="22.095" y="25.14" width="1.52" height="1.53" fill="#000000"></rect><rect x="22.095" y="19.05" width="1.52" height="3.05" fill="#000000"></rect><rect x="22.095" y="9.91" width="1.52" height="3.04" fill="#000000"></rect><rect x="22.095" y="5.34" width="1.52" height="1.52" fill="#000000"></rect><rect x="19.045" y="26.67" width="3.05" height="1.52" fill="#000000"></rect><rect x="19.045" y="22.1" width="3.05" height="1.52" fill="#000000"></rect><rect x="19.045" y="8.38" width="3.05" height="1.53" fill="#000000"></rect><rect x="19.045" y="3.81" width="3.05" height="1.53" fill="#000000"></rect><polygon points="17.525 29.72 14.475 29.72 14.475 28.19 12.955 28.19 12.955 31.24 19.045 31.24 19.045 28.19 17.525 28.19 17.525 29.72" fill="#000000"></polygon><rect x="12.955" y="23.62" width="6.09" height="1.52" fill="#000000"></rect><polygon points="14.475 19.05 17.525 19.05 17.525 17.53 19.045 17.53 19.045 14.48 17.525 14.48 17.525 12.95 14.475 12.95 14.475 14.48 12.955 14.48 12.955 17.53 14.475 17.53 14.475 19.05" fill="#000000"></polygon><rect x="12.955" y="6.86" width="6.09" height="1.52" fill="#000000"></rect><polygon points="14.475 2.29 17.525 2.29 17.525 3.81 19.045 3.81 19.045 0.76 12.955 0.76 12.955 3.81 14.475 3.81 14.475 2.29" fill="#000000"></polygon><rect x="9.905" y="26.67" width="3.05" height="1.52" fill="#000000"></rect><rect x="9.905" y="22.1" width="3.05" height="1.52" fill="#000000"></rect><rect x="9.905" y="8.38" width="3.05" height="1.53" fill="#000000"></rect><rect x="9.905" y="3.81" width="3.05" height="1.53" fill="#000000"></rect><rect x="8.385" y="25.14" width="1.52" height="1.53" fill="#000000"></rect><rect x="8.385" y="19.05" width="1.52" height="3.05" fill="#000000"></rect><rect x="8.385" y="9.91" width="1.52" height="3.04" fill="#000000"></rect><rect x="8.385" y="5.34" width="1.52" height="1.52" fill="#000000"></rect><rect x="6.855" y="26.67" width="1.53" height="1.52" fill="#000000"></rect><rect x="6.855" y="12.95" width="1.53" height="6.1" fill="#000000"></rect><rect x="6.855" y="3.81" width="1.53" height="1.53" fill="#000000"></rect><rect x="5.335" y="25.14" width="1.52" height="1.53" fill="#000000"></rect><rect x="5.335" y="22.1" width="1.52" height="1.52" fill="#000000"></rect><rect x="5.335" y="8.38" width="1.52" height="1.53" fill="#000000"></rect><rect x="5.335" y="5.34" width="1.52" height="1.52" fill="#000000"></rect><rect x="3.815" y="23.62" width="1.52" height="1.52" fill="#000000"></rect><rect x="3.815" y="19.05" width="1.52" height="3.05" fill="#000000"></rect><rect x="3.815" y="9.91" width="1.52" height="3.04" fill="#000000"></rect><rect x="3.815" y="6.86" width="1.52" height="1.52" fill="#000000"></rect><polygon points="3.815 17.53 2.285 17.53 2.285 14.48 3.815 14.48 3.815 12.95 0.765 12.95 0.765 19.05 3.815 19.05 3.815 17.53" fill="#000000"></polygon></g></svg>